<svg width="20" height="20" viewBox="0 0 20 20" fill="none" xmlns="http://www.w3.org/2000/svg">
<g clip-path="url(#clip0_3_75)">
<path d="M13.2575 10.1025L20 14.365V5.66L13.2575 10.1025Z" fill="black"/>
<path d="M0 5.66V14.365L6.7425 10.1025L0 5.66Z" fill="black"/>
<path d="M18.75 3.125H1.25001C0.626256 3.125 0.131256 3.59 0.0375061 4.18875L10 10.7525L19.9625 4.18875C19.8688 3.59 19.3738 3.125 18.75 3.125Z" fill="black"/>
<path d="M12.1125 10.8575L10.3437 12.0225C10.2387 12.0913 10.12 12.125 9.99998 12.125C9.87998 12.125 9.76123 12.0913 9.65623 12.0225L7.88748 10.8563L0.039978 15.82C0.136228 16.4138 0.628728 16.875 1.24998 16.875H18.75C19.3712 16.875 19.8637 16.4138 19.96 15.82L12.1125 10.8575Z" fill="black"/>
</g>
<defs>
<clipPath id="clip0_3_75">
<rect width="20" height="20" fill="white"/>
</clipPath>
</defs>
</svg>
