<svg width="20" height="20" viewBox="0 0 20 20" fill="none" xmlns="http://www.w3.org/2000/svg">
<g clip-path="url(#clip0_3_103)">
<path d="M19.2337 4.08383C18.4662 3.02785 17.1223 2.07473 15.4494 1.40012C13.7856 0.72918 11.8537 0.358125 10.0096 0.355508C8.16534 0.350898 6.23108 0.718125 4.56483 1.38383C2.88905 2.0534 1.54194 3.00238 0.771704 4.05586C0.0319387 5.06766 -0.181264 6.15824 0.155103 7.20973C0.373345 7.8918 1.00987 8.35078 1.7394 8.35184L4.23749 8.35418C4.23835 8.35418 4.23917 8.35418 4.23999 8.35418C4.73811 8.35414 5.20612 8.13609 5.52417 7.75566C5.83885 7.3793 5.96917 6.88742 5.88182 6.40609C5.87924 6.39195 5.87616 6.37793 5.8726 6.36398L5.74116 5.85297C6.46905 5.50566 8.11827 4.83465 10.0019 4.84531C11.8842 4.85496 13.5323 5.52559 14.261 5.87305L14.1274 6.38117C14.1237 6.39559 14.1204 6.41004 14.1178 6.42461C14.029 6.90566 14.158 7.39789 14.4715 7.77516C14.7891 8.15719 15.2574 8.37664 15.7568 8.37738L18.2549 8.37973C18.2558 8.37973 18.2566 8.37973 18.2574 8.37973C18.9856 8.37969 19.6223 7.92285 19.8421 7.24219C20.1817 6.19098 19.9713 5.09887 19.2337 4.08383Z" fill="black"/>
<path d="M15.6483 10.93L13.7854 8.9739C13.6727 8.85562 13.5166 8.78871 13.3532 8.78871H12.1493V7.97531C12.1493 7.64574 11.8821 7.37851 11.5525 7.37851C11.2229 7.37851 10.9557 7.6457 10.9557 7.97531V8.78871H9.04473V7.97531C9.04473 7.64574 8.77754 7.37851 8.44793 7.37851C8.11832 7.37851 7.85113 7.6457 7.85113 7.97531V8.78871H6.64727C6.48395 8.78871 6.32773 8.85566 6.21512 8.9739L4.35223 10.93C2.8916 12.4636 2.08719 14.4746 2.08719 16.5925V19.0477C2.08719 19.3773 2.35438 19.6445 2.68399 19.6445H17.3165C17.6461 19.6445 17.9133 19.3773 17.9133 19.0477V16.5925C17.9133 14.4746 17.1089 12.4637 15.6483 10.93ZM10.0002 17.463C8.27797 17.463 6.87684 16.0619 6.87684 14.3396C6.87684 12.6174 8.27801 11.2162 10.0002 11.2162C11.7225 11.2162 13.1236 12.6174 13.1236 14.3396C13.1236 16.0619 11.7225 17.463 10.0002 17.463Z" fill="black"/>
<path d="M10.0002 12.4098C8.9361 12.4098 8.07043 13.2755 8.07043 14.3396C8.07043 15.4037 8.93614 16.2694 10.0002 16.2694C11.0643 16.2694 11.93 15.4037 11.93 14.3396C11.93 13.2755 11.0643 12.4098 10.0002 12.4098Z" fill="black"/>
</g>
<defs>
<clipPath id="clip0_3_103">
<rect width="20" height="20" fill="white"/>
</clipPath>
</defs>
</svg>
